<?xml version="1.0" standalone="no"?>
<!DOCTYPE svg PUBLIC "-//W3C//DTD SVG 20010904//EN"
 "http://www.w3.org/TR/2001/REC-SVG-20010904/DTD/svg10.dtd">
<svg version="1.0" xmlns="http://www.w3.org/2000/svg"
 width="512.000000pt" height="512.000000pt" viewBox="0 0 512.000000 512.000000"
 preserveAspectRatio="xMidYMid meet">
<metadata>
Created by potrace 1.14, written by Peter Selinger 2001-2017
</metadata>
<g transform="translate(0.000000,512.000000) scale(0.100000,-0.100000)"
fill="#000000" stroke="none">
<path d="M2409 4936 c-2 -2 -40 -6 -84 -10 -80 -6 -102 -9 -205 -27 -144 -24
-256 -54 -396 -105 -156 -56 -289 -119 -417 -196 -87 -52 -230 -150 -247 -168
-3 -3 -27 -23 -54 -45 -70 -56 -213 -198 -282 -280 -60 -72 -175 -228 -187
-255 -4 -8 -17 -31 -29 -50 -80 -131 -188 -385 -237 -553 -78 -274 -101 -447
-96 -742 4 -233 5 -243 35 -400 30 -158 38 -187 81 -318 91 -274 242 -545 420
-753 416 -486 990 -789 1630 -862 122 -14 540 -5 569 13 3 1 25 6 50 9 175 23
444 113 652 216 622 312 1100 918 1272 1615 13 55 27 120 31 145 4 25 9 52 10
61 2 9 6 38 9 65 3 27 8 73 12 103 7 63 7 313 0 386 -33 327 -103 571 -247
859 -180 358 -463 677 -789 891 -41 26 -86 56 -100 65 -53 35 -253 132 -342
166 -176 68 -416 131 -573 149 -27 4 -61 9 -75 11 -30 6 -405 15 -411 10z"/>
</g>
</svg>
